{
    "asset" : {
        "generator" : "Khronos glTF Blender I/O v1.7.33",
        "version" : "2.0"
    },
    "scene" : 0,
    "scenes" : [
        {
            "name" : "Scene",
            "nodes" : [
                0
            ]
        }
    ],
    "nodes" : [
        {
            "mesh" : 0,
            "name" : "cinamon_roll_3k"
        }
    ],
    "meshes" : [
        {
            "name" : "cinamon_roll_3k",
            "primitives" : [
                {
                    "attributes" : {
                        "POSITION" : 0,
                        "NORMAL" : 1,
                        "TEXCOORD_0" : 2
                    },
                    "indices" : 3
                }
            ]
        }
    ],
    "accessors" : [
        {
            "bufferView" : 0,
            "componentType" : 5126,
            "count" : 1586,
            "max" : [
                0.056434888392686844,
                0.05637981742620468,
                0.059062667191028595
            ],
            "min" : [
                -0.059848353266716,
                0.002848900854587555,
                -0.05869528651237488
            ],
            "type" : "VEC3"
        },
        {
            "bufferView" : 1,
            "componentType" : 5126,
            "count" : 1586,
            "type" : "VEC3"
        },
        {
            "bufferView" : 2,
            "componentType" : 5126,
            "count" : 1586,
            "type" : "VEC2"
        },
        {
            "bufferView" : 3,
            "componentType" : 5123,
            "count" : 8784,
            "type" : "SCALAR"
        }
    ],
    "bufferViews" : [
        {
            "buffer" : 0,
            "byteLength" : 19032,
            "byteOffset" : 0
        },
        {
            "buffer" : 0,
            "byteLength" : 19032,
            "byteOffset" : 19032
        },
        {
            "buffer" : 0,
            "byteLength" : 12688,
            "byteOffset" : 38064
        },
        {
            "buffer" : 0,
            "byteLength" : 17568,
            "byteOffset" : 50752
        }
    ],
    "buffers" : [
        {
            "byteLength" : 68320,
            "uri" : "cinnamon_roll3k.bin"
        }
    ]
}
